PathFileType	4	(X/Y/Z)	/Users/itak/Documents/Research/Walk-IL/dataset/trc/00378_00012.trc
DataRate	CameraRate	NumFrames	NumMarkers	Units	OrigDataRate	OrigDataStartFrame	OrigNumFrames
100.000000	100.000000	4	54	mm	100.000000	0	346
Frame#	Time	RPSI			LPSI			L3			STRN			T10			C7			CLAV			RBAK			LBAK			LSHO			LUPA			LAEL			LAOL			LWTS			LWPS			LFRA			LIFD			LHPS			LHTS			RSHO			RUPA			RAEL			RAOL			RWTS			RWPS			RFRA			RIFD			RHTS			RHPS			RBHD			LFHD			RFHD			LBHD			RASI			LASI			LKNE			LTHI			LANK			LTIP			LTOE			LMT1			LMT5			LHEE			RKNE			RTHI			RANK			RTIP			RTOE			RMT1			RMT5			RHEE			LHIP			RHIP			*53			
		X1	Y1	Z1	X2	Y2	Z2	X3	Y3	Z3	X4	Y4	Z4	X5	Y5	Z5	X6	Y6	Z6	X7	Y7	Z7	X8	Y8	Z8	X9	Y9	Z9	X10	Y10	Z10	X11	Y11	Z11	X12	Y12	Z12	X13	Y13	Z13	X14	Y14	Z14	X15	Y15	Z15	X16	Y16	Z16	X17	Y17	Z17	X18	Y18	Z18	X19	Y19	Z19	X20	Y20	Z20	X21	Y21	Z21	X22	Y22	Z22	X23	Y23	Z23	X24	Y24	Z24	X25	Y25	Z25	X26	Y26	Z26	X27	Y27	Z27	X28	Y28	Z28	X29	Y29	Z29	X30	Y30	Z30	X31	Y31	Z31	X32	Y32	Z32	X33	Y33	Z33	X34	Y34	Z34	X35	Y35	Z35	X36	Y36	Z36	X37	Y37	Z37	X38	Y38	Z38	X39	Y39	Z39	X40	Y40	Z40	X41	Y41	Z41	X42	Y42	Z42	X43	Y43	Z43	X44	Y44	Z44	X45	Y45	Z45	X46	Y46	Z46	X47	Y47	Z47	X48	Y48	Z48	X49	Y49	Z49	X50	Y50	Z50	X51	Y51	Z51	X52	Y52	Z52	X53	Y53	Z53	X54	Y54	Z54	

1	0	-1596.945068359375	984.1151733398438	174.3710479736328	-1607.073608398438	979.5131225585938	41.97031784057617	-1601.469970703125	1054.236938476562	111.7150802612305	-1365.947509765625	1208.40380859375	113.1737823486328	-1614.826293945312	1159.174438476562	108.8847122192383	-1573.78369140625	1408.2412109375	105.3956604003906	-1420.205810546875	1326.9599609375	113.8143920898438	-1619.875122070312	1261.42724609375	167.6913299560547	-1587.60888671875	1372.898559570312	0.596356213092804	-1498.352294921875	1386.1435546875	-47.72169876098633	-1523.381591796875	1271.539428710938	-119.8744277954102	-1511.002319335938	1074.269287109375	-148.8296966552734	-1570.975708007812	1054.42578125	-92.17484283447266	-1418.76171875	859.4486694335938	-97.50301361083984	-1464.465209960938	843.7088012695312	-163.2710418701172	-1492.017333984375	969.5704956054688	-158.2220458984375	-1412.534912109375	680.787841796875	-93.72856140136719	-1447.624755859375	759.50439453125	-153.0069580078125	-1395.854248046875	763.6224975585938	-115.8717041015625	-1521.588989257812	1381.576171875	264.8478088378906	-1540.697265625	1316.3916015625	320.4967956542969	-1559.513305664062	1054.251953125	351.6431274414062	-1577.342895507812	1049.589111328125	257.8246459960938	-1429.972778320312	841.4932250976562	315.2055053710938	-1476.534301757812	824.5181274414062	369.8596496582031	-1536.255737304688	986.2503662109375	365.172607421875	-1427.572387695312	668.4954223632812	303.9856262207031	-1410.935913085938	735.2791748046875	328.8742980957031	-1470.162475585938	735.8474731445312	362.3049621582031	-1522.441528320312	1601.506591796875	183.8386535644531	-1379.488647460938	1586.88671875	46.24392700195312	-1389.824951171875	1598.685791015625	168.1459045410156	-1526.405151367188	1586.271728515625	22.66215324401855	-1378.686767578125	962.2047119140625	223.7550048828125	-1408.613891601562	962.7034912109375	-39.69027709960938	-1465.894653320312	473.9793701171875	-71.11481475830078	-1476.384643554688	614.6478271484375	-78.11894989013672	-1624.173095703125	43.17531585693359	-66.70885467529297	-1550.70947265625	252.8725128173828	-82.21369934082031	-1416.22021484375	56.06013870239258	7.556390285491943	-1497.130615234375	52.91798400878906	34.8129768371582	-1496.580322265625	39.54037857055664	-70.24594116210938	-1664.514892578125	45.86591720581055	-11.25433540344238	-1466.42822265625	463.9957275390625	232.7712097167969	-1433.120361328125	721.5990600585938	268.3619995117188	-1578.251708984375	57.18873977661133	206.2751312255859	-1472.454223632812	336.4622497558594	213.1031799316406	-1407.751708984375	41.02045822143555	125.4498901367188	-1484.873413085938	43.94166564941406	104.5084075927734	-1494.161987304688	48.31751251220703	204.5120849609375	-1656.706298828125	44.84266662597656	161.1647186279297	-1528.523803710938	968.6298217773438	-76.91436004638672	-1510.345581054688	952.9387817382812	282.6577758789062	nan	nan	nan	
2	0.01	-1596.029663085938	983.9234619140625	175.0876159667969	-1606.422241210938	979.1148071289062	42.69129180908203	-1600.652465820312	1054.369262695312	112.5132522583008	-1364.639892578125	1207.926879882812	113.9612884521484	-1613.370239257812	1159.28466796875	109.672607421875	-1571.932983398438	1408.247436523438	106.3059768676758	-1418.473999023438	1326.603149414062	114.5794296264648	-1618.255859375	1261.4892578125	168.6212921142578	-1585.914672851562	1372.957397460938	1.468596220016479	-1496.602416992188	1385.979736328125	-46.85463333129883	-1521.790649414062	1271.501708984375	-119.0939483642578	-1509.593505859375	1074.2099609375	-148.4034118652344	-1569.786010742188	1054.439208984375	-91.88780975341797	-1417.463012695312	859.5655517578125	-96.89708709716797	-1462.849243164062	843.7647094726562	-162.9110412597656	-1490.567138671875	969.5521850585938	-157.7934875488281	-1410.942260742188	680.9708251953125	-92.91816711425781	-1445.804077148438	759.5438232421875	-152.5495758056641	-1394.240478515625	763.7996826171875	-115.2500991821289	-1519.678588867188	1381.440551757812	265.6952819824219	-1538.853515625	1316.319946289062	321.4007263183594	-1558.4892578125	1054.172729492188	352.5298767089844	-1576.31689453125	1049.59033203125	258.6691589355469	-1428.855224609375	841.41943359375	315.8908081054688	-1475.756958007812	824.22412109375	370.3451843261719	-1535.241821289062	986.0576782226562	365.9943237304688	-1426.329833984375	668.4260864257812	304.1729736328125	-1409.767822265625	735.19140625	329.3401489257812	-1469.355834960938	735.6084594726562	362.4140625	-1520.673583984375	1601.39208984375	184.4698333740234	-1378.001708984375	1586.717041015625	46.62728118896484	-1388.072998046875	1598.686157226562	168.4938659667969	-1524.9931640625	1585.811401367188	23.3387393951416	-1377.767333984375	961.764404296875	224.2692565917969	-1408.186645507812	962.3723754882812	-39.02860260009766	-1460.81982421875	473.88623046875	-69.4884033203125	-1472.514038085938	614.097900390625	-76.65029144287109	-1623.774047851562	44.84856033325195	-66.69390869140625	-1548.2353515625	253.8555908203125	-81.53306579589844	-1415.989013671875	55.27761840820312	7.589815616607666	-1496.84033203125	52.82687377929688	34.73981857299805	-1496.398193359375	39.59605026245117	-70.26895141601562	-1664.193115234375	48.01370620727539	-11.2839412689209	-1465.960083007812	463.7413024902344	233.2762603759766	-1432.244018554688	721.3521728515625	268.8158874511719	-1578.261596679688	57.12794494628906	206.3469848632812	-1472.0732421875	336.2277526855469	213.4335479736328	-1407.868408203125	41.02957153320312	125.3605194091797	-1484.864379882812	43.97018051147461	104.4534454345703	-1494.2421875	48.28041839599609	204.4949340820312	-1656.801635742188	44.84654998779297	161.3250274658203	-1527.508544921875	968.3159790039062	-76.13529205322266	-1509.31103515625	952.7422485351562	283.2995300292969	nan	nan	nan	
3	0.02	-1594.900756835938	983.7094116210938	176.00146484375	-1605.61962890625	978.6034545898438	43.60720062255859	-1599.650512695312	1054.560913085938	113.5323715209961	-1362.942016601562	1207.296997070312	114.8837738037109	-1611.548950195312	1159.436889648438	110.674430847168	-1569.559936523438	1408.266235351562	107.4439544677734	-1416.27587890625	1326.157348632812	115.5092239379883	-1616.190185546875	1261.588012695312	169.7927551269531	-1583.76806640625	1373.047241210938	2.554697751998901	-1494.394653320312	1385.7861328125	-45.794189453125	-1519.817626953125	1271.458862304688	-118.1207504272461	-1507.858032226562	1074.147216796875	-147.8578796386719	-1568.297729492188	1054.458984375	-91.50554656982422	-1415.7890625	859.737060546875	-96.14841461181641	-1460.8486328125	843.8634643554688	-162.4686431884766	-1488.776977539062	969.5452270507812	-157.2535552978516	-1408.899536132812	681.208740234375	-91.94379425048828	-1443.50634765625	759.6282958984375	-151.9861755371094	-1392.219604492188	764.0237426757812	-114.4898834228516	-1517.188842773438	1381.26708984375	266.7513122558594	-1536.462524414062	1316.226928710938	322.5218811035156	-1557.1005859375	1054.086791992188	353.6672973632812	-1574.988037109375	1049.596923828125	259.7783508300781	-1427.374633789062	841.3132934570312	316.7018432617188	-1474.668212890625	823.8687744140625	370.9371032714844	-1533.886962890625	985.8342895507812	367.033447265625	-1424.771362304688	668.3471069335938	304.357177734375	-1408.243530273438	735.0598754882812	329.8710632324219	-1468.211669921875	735.306640625	362.5655212402344	-1518.399658203125	1601.240112304688	185.2740631103516	-1376.088134765625	1586.532348632812	47.10379028320312	-1385.822021484375	1598.68896484375	168.9339294433594	-1523.165893554688	1585.2578125	24.19241523742676	-1376.586669921875	961.2271728515625	224.91943359375	-1407.622924804688	961.9874267578125	-38.22319412231445	-1454.100952148438	473.8872985839844	-67.47223663330078	-1467.357543945312	613.4959716796875	-74.80286407470703	-1623.180419921875	47.252685546875	-66.64080047607422	-1544.873291015625	255.28271484375	-80.66561889648438	-1415.625366210938	54.26572036743164	7.601932048797607	-1496.401000976562	52.78932952880859	34.63277816772461	-1496.119873046875	39.74284744262695	-70.30351257324219	-1663.64306640625	51.08937835693359	-11.25539016723633	-1465.374267578125	463.4203796386719	233.9076843261719	-1431.15966796875	721.0640869140625	269.4073791503906	-1578.252075195312	57.0529899597168	206.4276733398438	-1471.620727539062	335.9267883300781	213.8568878173828	-1408.0048828125	41.04480743408203	125.255256652832	-1484.873413085938	43.99869155883789	104.3967742919922	-1494.340209960938	48.23711776733398	204.4766540527344	-1656.911254882812	44.84359359741211	161.5097503662109	-1526.309936523438	967.9172973632812	-75.16876220703125	-1508.010864257812	952.5121459960938	284.0609741210938	nan	nan	nan	
4	0.03	-1593.6025390625	983.4976806640625	177.0808715820312	-1604.702392578125	978.0065307617188	44.68658828735352	-1598.503295898438	1054.811401367188	114.7458953857422	-1360.876831054688	1206.537231445312	115.8744735717773	-1609.43310546875	1159.6328125	111.8565979003906	-1566.736450195312	1408.3017578125	108.757438659668	-1413.686645507812	1325.641967773438	116.5475845336914	-1613.741577148438	1261.726196289062	171.1562805175781	-1581.243774414062	1373.171997070312	3.805587291717529	-1491.81201171875	1385.577392578125	-44.59829711914062	-1517.555053710938	1271.416381835938	-116.9996566772461	-1505.886962890625	1074.091674804688	-147.2076568603516	-1566.576538085938	1054.488525390625	-91.02667999267578	-1413.796752929688	859.9671630859375	-95.29806518554688	-1458.556762695312	844.0133666992188	-161.9606323242188	-1486.738159179688	969.55908203125	-156.6215362548828	-1406.462524414062	681.50439453125	-90.87750244140625	-1440.82421875	759.771484375	-151.3451995849609	-1389.858520507812	764.2999267578125	-113.6345977783203	-1514.180297851562	1381.063354492188	267.9645080566406	-1533.584594726562	1316.11669921875	323.8056030273438	-1555.350708007812	1054.005493164062	355.0188293457031	-1573.3857421875	1049.616088867188	261.1271362304688	-1425.55908203125	841.1728515625	317.5780334472656	-1473.246337890625	823.4769287109375	371.6015930175781	-1532.195190429688	985.59912109375	368.2516784667969	-1422.968139648438	668.26611328125	304.51416015625	-1406.385620117188	734.8807983398438	330.4203796386719	-1466.717895507812	734.9597778320312	362.7603759765625	-1515.685180664062	1601.050048828125	186.2231597900391	-1373.8017578125	1586.352416992188	47.65101623535156	-1383.138549804688	1598.694213867188	169.4484252929688	-1520.969360351562	1584.64599609375	25.18865013122559	-1375.180297851562	960.6194458007812	225.6829681396484	-1406.932495117188	961.5771484375	-37.30805206298828	-1445.85888671875	474.0431213378906	-65.17759704589844	-1460.985229492188	612.9254760742188	-72.66448974609375	-1622.348754882812	50.44424438476562	-66.5250244140625	-1540.6162109375	257.1848754882812	-79.63916015625	-1415.103515625	53.06260299682617	7.581161499023438	-1495.776245117188	52.85470581054688	34.49826431274414	-1495.723876953125	40.02134704589844	-70.34537506103516	-1662.782104492188	55.14022445678711	-11.1329870223999	-1464.707153320312	463.0530395507812	234.64013671875	-1429.910278320312	720.7701416015625	270.1151428222656	-1578.225952148438	56.96992111206055	206.5093994140625	-1471.133056640625	335.5753173828125	214.3590698242188	-1408.150146484375	41.06738662719727	125.140869140625	-1484.905029296875	44.02315521240234	104.3457946777344	-1494.446411132812	48.19267272949219	204.4611663818359	-1657.024658203125	44.82658386230469	161.7041015625	-1524.995971679688	967.4524536132812	-74.0552978515625	-1506.50146484375	952.2603149414062	284.8894653320312	nan	nan	nan	
